<svg xmlns="http://www.w3.org/2000/svg" width="14" height="14" viewBox="0 0 14 14">
    <path data-name="Path 1" d="M363.219 23.156a.547.547 0 0 0-.543.551v5.783l-1.387-1.712a.546.546 0 0 0-.839.7l2.35 2.9a.668.668 0 0 0 .838 0l2.349-2.9a.546.546 0 1 0-.839-.7l-1.387 1.712v-5.783a.547.547 0 0 0-.543-.551z" transform="translate(-356.219 -23.156)" style="fill:#337ab7"/>
    <path data-name="Path 2" d="m27.889 544.665-3.1-2.158a.538.538 0 0 0-.307-.1h-.415a.551.551 0 0 0 0 1.1h.247l1.518 1.056h-2.145a.547.547 0 0 0-.543.55v1.268h-4.039v-1.268a.547.547 0 0 0-.542-.55h-2.168l1.493-1.056h.373a.551.551 0 0 0 0-1.1h-.544a.542.542 0 0 0-.31.1l-3.049 2.157a.544.544 0 0 0-.232.451v4.495a.547.547 0 0 0 .543.55h12.913a.547.547 0 0 0 .543-.551v-4.495a.6.6 0 0 0-.236-.454zm-.85 4.4H15.211v-3.394h2.808v1.268a.548.548 0 0 0 .544.551h5.124a.547.547 0 0 0 .543-.551v-1.268h2.809z" transform="translate(-14.125 -536.164)" style="fill:#337ab7"/>
</svg>
