<svg xmlns="http://www.w3.org/2000/svg" width="14.3" height="14" viewBox="0 0 14.3 14">
    <g data-name="Group 1">
        <path data-name="Rectangle 2" transform="translate(.15)" style="fill:#fff;opacity:.004" d="M0 0h14v14H0z"/>
        <path d="M147.645 234h-11.29a1.355 1.355 0 0 0-1.355 1.352v8.3a1.355 1.355 0 0 0 1.355 1.348h11.29a1.355 1.355 0 0 0 1.355-1.352v-8.3a1.355 1.355 0 0 0-1.355-1.348zm0 .9a.448.448 0 0 1 .19.043L142 239.47l-5.834-4.525a.446.446 0 0 1 .189-.043zm0 9.2h-11.29a.452.452 0 0 1-.452-.451v-7.765l5.82 4.514a.452.452 0 0 0 .554 0l5.82-4.514v7.764a.452.452 0 0 1-.452.451z" transform="translate(-134.85 -232)" style="fill:#337ab7;stroke:#337ab7;stroke-width:.3px"/>
    </g>
</svg>
