<svg xmlns="http://www.w3.org/2000/svg" width="14.1" height="14.1" viewBox="0 0 14.1 14.1">
    <path d="M141.071 130.07h-8.384a2.808 2.808 0 0 0-2.808 2.808v8.384a2.808 2.808 0 0 0 2.808 2.808h8.384a2.808 2.808 0 0 0 2.808-2.808v-8.384a2.808 2.808 0 0 0-2.808-2.808zm1.685 11.192a1.685 1.685 0 0 1-1.685 1.685h-8.384a1.685 1.685 0 0 1-1.687-1.685v-8.384a1.685 1.685 0 0 1 1.685-1.685h8.384a1.685 1.685 0 0 1 1.685 1.685zm-5.874-7.059a2.87 2.87 0 1 0 2.026.843 2.869 2.869 0 0 0-2.026-.843zm0 4.611a.72.72 0 1 0 0-.011zm4.813-6.121a.562.562 0 0 1-.562.562h-.562a.562.562 0 0 1 0-1.123h.562a.562.562 0 0 1 .562.562z" transform="translate(-129.829 -130.02)" style="fill:#337ab7;stroke:#337ab7;stroke-width:.1px"/>
</svg>
